<svg xmlns="http://www.w3.org/2000/svg" viewBox="0 0 32 32"><path d="M13.6 12.5c.03-.04.07-.06.11-.09l.31-.2.13-.06c1-.49 2.2-.32 3.04.42l.12.12.24.26.1.16a2.81 2.81 0 0 1 .48 1.25l.02.2-.01.34-.01.17c-.03.16-.06.32-.12.48v.03l1.5.87 2.82-4.87-15.58-9-2.8 4.87 9.3 5.37c.1-.12.22-.23.34-.33ZM1.15 7.79 5.65 0l.97.56-4.5 7.79-.97-.56Zm25.34 10.08.56-.97 3.9 2.25-.57.97-3.9-2.25Zm-5.43-1.84 1.68-2.92 3.9 2.25-1.69 2.92-3.9-2.25Z"/><path d="M16.67 15.96a.54.54 0 0 0-.1-.12 1.7 1.7 0 0 0-.75-2.76c-.03-.02-.07-.02-.1-.03-.1-.02-.2-.04-.29-.04h-.12a1.68 1.68 0 0 0-1.18 2.83.54.54 0 0 0-.1.12L6.4 31.2a.56.56 0 0 0 1 .5l7.37-14.74v14.49a.56.56 0 1 0 1.13 0v-14.5l7.36 14.74a.56.56 0 1 0 1-.5l-7.6-15.23Z"/></svg>
