<svg xmlns="http://www.w3.org/2000/svg" viewBox="0 0 23 23"><path d="M17.85 12.35a1.2 1.2 0 0 0-1.7 0l-1.91 1.91a8.99 8.99 0 0 1-3.6-1.9 8.99 8.99 0 0 1-1.9-3.6l1.9-1.91a1.2 1.2 0 0 0 0-1.7L5.85.35a1.2 1.2 0 0 0-1.69 0L.9 3.61a2.4 2.4 0 0 0-.7 1.72c.02 1.7.47 7.64 5.15 12.32 4.68 4.68 10.61 5.13 12.32 5.16h.04c.63 0 1.23-.25 1.68-.7l3.26-3.26a1.2 1.2 0 0 0 0-1.7l-4.8-4.8Zm-.15 8.06a15.9 15.9 0 0 1-10.65-4.46A15.9 15.9 0 0 1 2.59 5.3L5 2.9 8.1 6 6.55 7.55a1.2 1.2 0 0 0-.33 1.1c.03.13.74 3.4 2.73 5.4 2 2 5.26 2.7 5.4 2.72a1.19 1.19 0 0 0 1.1-.32L17 14.9l3.1 3.1-2.4 2.4Z"/></svg>
