<svg xmlns="http://www.w3.org/2000/svg" viewBox="0 0 23 22"><path d="M11.5 0C8.51 0 8.14.01 6.97.07a8.1 8.1 0 0 0-2.67.5c-.74.28-1.4.72-1.95 1.28a5.4 5.4 0 0 0-1.27 1.94 7.9 7.9 0 0 0-.51 2.67A79.55 79.55 0 0 0 .5 11c0 2.99.01 3.36.07 4.53a8.1 8.1 0 0 0 .5 2.67 5.4 5.4 0 0 0 1.28 1.95c.6.62 1.22 1 1.94 1.27.7.27 1.5.46 2.67.51 1.18.06 1.55.07 4.54.07s3.36-.01 4.53-.07a8.12 8.12 0 0 0 2.68-.5c.73-.28 1.4-.72 1.94-1.28a5.4 5.4 0 0 0 1.27-1.95c.27-.7.46-1.5.51-2.67.06-1.17.07-1.54.07-4.53s-.01-3.36-.07-4.54a8.13 8.13 0 0 0-.5-2.67 5.4 5.4 0 0 0-1.28-1.94c-.55-.56-1.21-1-1.95-1.27a8.1 8.1 0 0 0-2.67-.51A79.4 79.4 0 0 0 11.5 0Zm-.99 1.98h1c2.93 0 3.28.01 4.44.07a6.1 6.1 0 0 1 2.04.37c.51.2.88.44 1.26.83.39.38.63.75.83 1.26.15.39.33.97.37 2.04.06 1.16.07 1.51.07 4.45 0 2.93-.01 3.28-.07 4.44a6.08 6.08 0 0 1-.37 2.04 3.4 3.4 0 0 1-.83 1.27 3.4 3.4 0 0 1-1.26.82c-.39.15-.97.33-2.04.38-1.16.05-1.51.06-4.45.06-2.94 0-3.28 0-4.44-.06A6.07 6.07 0 0 1 5 19.57a3.4 3.4 0 0 1-1.26-.82 3.41 3.41 0 0 1-.83-1.27 6.08 6.08 0 0 1-.37-2.04c-.06-1.16-.07-1.5-.07-4.45 0-2.93.01-3.28.07-4.44.05-1.07.22-1.65.38-2.04.2-.51.43-.88.82-1.27A3.4 3.4 0 0 1 5 2.42c.4-.15.97-.33 2.05-.38 1.01-.04 1.4-.06 3.45-.06Zm6.86 1.83a1.32 1.32 0 1 0 0 2.64 1.32 1.32 0 0 0 0-2.64ZM11.5 5.35a5.65 5.65 0 1 0-.17 11.3 5.65 5.65 0 0 0 .17-11.3Zm0 1.98a3.67 3.67 0 1 1 0 7.34 3.67 3.67 0 0 1 0-7.34Z"/></svg>
